<mxfile host="app.diagrams.net" modified="2022-04-15T06:36:45.157Z" agent="5.0 (Windows NT 10.0; Win64; x64) AppleWebKit/537.36 (KHTML, like Gecko) Chrome/100.0.4896.88 Safari/537.36" etag="6kv8EYWImbj0jFFz12mw" version="17.4.3" type="github">
  <diagram id="dWDWc4EyFyWDF9khaK5P" name="第 1 页">
    <mxGraphModel dx="2249" dy="1963" grid="1" gridSize="10" guides="1" tooltips="1" connect="1" arrows="1" fold="1" page="1" pageScale="1" pageWidth="827" pageHeight="1169" math="0" shadow="0">
      <root>
        <mxCell id="0" />
        <mxCell id="1" parent="0" />
        <mxCell id="BEaddWaeXoZHOyZYiYv0-9" value="入会：签约方" style="shape=umlActor;verticalLabelPosition=bottom;verticalAlign=top;html=1;outlineConnect=0;" vertex="1" parent="1">
          <mxGeometry x="-780" y="710" width="30" height="60" as="geometry" />
        </mxCell>
        <mxCell id="BEaddWaeXoZHOyZYiYv0-13" value="视频会议客户端" style="shape=umlLifeline;perimeter=lifelinePerimeter;whiteSpace=wrap;html=1;container=1;collapsible=0;recursiveResize=0;outlineConnect=0;fillColor=#dae8fc;strokeColor=#6c8ebf;" vertex="1" parent="1">
          <mxGeometry x="-630" y="740" width="100" height="320" as="geometry" />
        </mxCell>
        <mxCell id="BEaddWaeXoZHOyZYiYv0-11" value="" style="html=1;points=[];perimeter=orthogonalPerimeter;" vertex="1" parent="BEaddWaeXoZHOyZYiYv0-13">
          <mxGeometry x="45" y="60" width="10" height="220" as="geometry" />
        </mxCell>
        <mxCell id="BEaddWaeXoZHOyZYiYv0-15" value="文旅云" style="shape=umlLifeline;perimeter=lifelinePerimeter;whiteSpace=wrap;html=1;container=1;collapsible=0;recursiveResize=0;outlineConnect=0;fillColor=#dae8fc;strokeColor=#6c8ebf;" vertex="1" parent="1">
          <mxGeometry x="-390" y="740" width="100" height="320" as="geometry" />
        </mxCell>
        <mxCell id="BEaddWaeXoZHOyZYiYv0-16" value="" style="html=1;points=[];perimeter=orthogonalPerimeter;" vertex="1" parent="BEaddWaeXoZHOyZYiYv0-15">
          <mxGeometry x="45" y="60" width="10" height="100" as="geometry" />
        </mxCell>
        <mxCell id="BEaddWaeXoZHOyZYiYv0-17" value="腾讯会议" style="shape=umlLifeline;perimeter=lifelinePerimeter;whiteSpace=wrap;html=1;container=1;collapsible=0;recursiveResize=0;outlineConnect=0;fillColor=#dae8fc;strokeColor=#6c8ebf;" vertex="1" parent="1">
          <mxGeometry x="-150" y="740" width="100" height="320" as="geometry" />
        </mxCell>
        <mxCell id="BEaddWaeXoZHOyZYiYv0-18" value="" style="html=1;points=[];perimeter=orthogonalPerimeter;" vertex="1" parent="BEaddWaeXoZHOyZYiYv0-17">
          <mxGeometry x="45" y="60" width="10" height="220" as="geometry" />
        </mxCell>
        <mxCell id="BEaddWaeXoZHOyZYiYv0-19" value="扫一扫" style="html=1;verticalAlign=bottom;startArrow=oval;startFill=1;endArrow=block;startSize=8;rounded=0;" edge="1" parent="1">
          <mxGeometry width="60" relative="1" as="geometry">
            <mxPoint x="-790" y="820" as="sourcePoint" />
            <mxPoint x="-590" y="820" as="targetPoint" />
          </mxGeometry>
        </mxCell>
        <mxCell id="BEaddWaeXoZHOyZYiYv0-24" value="文旅云登录" style="html=1;verticalAlign=bottom;endArrow=block;rounded=0;" edge="1" parent="1">
          <mxGeometry width="80" relative="1" as="geometry">
            <mxPoint x="-571" y="840" as="sourcePoint" />
            <mxPoint x="-350" y="840" as="targetPoint" />
          </mxGeometry>
        </mxCell>
        <mxCell id="BEaddWaeXoZHOyZYiYv0-25" value="入会：会议号、会议密码&amp;nbsp;" style="html=1;verticalAlign=bottom;endArrow=block;rounded=0;" edge="1" parent="1">
          <mxGeometry width="80" relative="1" as="geometry">
            <mxPoint x="-570.5" y="960" as="sourcePoint" />
            <mxPoint x="-109.5" y="960" as="targetPoint" />
          </mxGeometry>
        </mxCell>
        <mxCell id="BEaddWaeXoZHOyZYiYv0-26" value="当前会议信息" style="html=1;verticalAlign=bottom;endArrow=open;dashed=1;endSize=8;rounded=0;" edge="1" parent="1">
          <mxGeometry relative="1" as="geometry">
            <mxPoint x="-360" y="878" as="sourcePoint" />
            <mxPoint x="-570" y="878" as="targetPoint" />
          </mxGeometry>
        </mxCell>
        <mxCell id="BEaddWaeXoZHOyZYiYv0-42" value="签约：签约方" style="shape=umlActor;verticalLabelPosition=bottom;verticalAlign=top;html=1;outlineConnect=0;" vertex="1" parent="1">
          <mxGeometry x="-780" y="1150" width="30" height="60" as="geometry" />
        </mxCell>
        <mxCell id="BEaddWaeXoZHOyZYiYv0-43" value="视频会议客户端" style="shape=umlLifeline;perimeter=lifelinePerimeter;whiteSpace=wrap;html=1;container=1;collapsible=0;recursiveResize=0;outlineConnect=0;fillColor=#dae8fc;strokeColor=#6c8ebf;" vertex="1" parent="1">
          <mxGeometry x="-630" y="1180" width="100" height="360" as="geometry" />
        </mxCell>
        <mxCell id="BEaddWaeXoZHOyZYiYv0-44" value="" style="html=1;points=[];perimeter=orthogonalPerimeter;" vertex="1" parent="BEaddWaeXoZHOyZYiYv0-43">
          <mxGeometry x="45" y="60" width="10" height="260" as="geometry" />
        </mxCell>
        <mxCell id="BEaddWaeXoZHOyZYiYv0-46" value="文旅云" style="shape=umlLifeline;perimeter=lifelinePerimeter;whiteSpace=wrap;html=1;container=1;collapsible=0;recursiveResize=0;outlineConnect=0;fillColor=#dae8fc;strokeColor=#6c8ebf;" vertex="1" parent="1">
          <mxGeometry x="-390" y="1180" width="100" height="360" as="geometry" />
        </mxCell>
        <mxCell id="BEaddWaeXoZHOyZYiYv0-47" value="" style="html=1;points=[];perimeter=orthogonalPerimeter;" vertex="1" parent="BEaddWaeXoZHOyZYiYv0-46">
          <mxGeometry x="45" y="60" width="10" height="260" as="geometry" />
        </mxCell>
        <mxCell id="BEaddWaeXoZHOyZYiYv0-51" value="登录" style="html=1;verticalAlign=bottom;startArrow=oval;startFill=1;endArrow=block;startSize=8;rounded=0;" edge="1" parent="1">
          <mxGeometry width="60" relative="1" as="geometry">
            <mxPoint x="-790" y="1260" as="sourcePoint" />
            <mxPoint x="-590" y="1260" as="targetPoint" />
          </mxGeometry>
        </mxCell>
        <mxCell id="BEaddWaeXoZHOyZYiYv0-55" value="打开签约页面" style="html=1;verticalAlign=bottom;endArrow=block;rounded=0;" edge="1" parent="1">
          <mxGeometry x="0.5789" y="-30" width="80" relative="1" as="geometry">
            <mxPoint x="-570" y="1300" as="sourcePoint" />
            <mxPoint x="-565" y="1380" as="targetPoint" />
            <Array as="points">
              <mxPoint x="-465" y="1300" />
              <mxPoint x="-465" y="1380" />
            </Array>
            <mxPoint as="offset" />
          </mxGeometry>
        </mxCell>
        <mxCell id="BEaddWaeXoZHOyZYiYv0-45" value="签约画面实时回传到文旅云" style="html=1;verticalAlign=bottom;endArrow=block;rounded=0;" edge="1" parent="1">
          <mxGeometry width="80" relative="1" as="geometry">
            <mxPoint x="-570" y="1450" as="sourcePoint" />
            <mxPoint x="-350" y="1450" as="targetPoint" />
          </mxGeometry>
        </mxCell>
        <mxCell id="BEaddWaeXoZHOyZYiYv0-56" value="入会：非签约嘉宾" style="shape=umlActor;verticalLabelPosition=bottom;verticalAlign=top;html=1;outlineConnect=0;" vertex="1" parent="1">
          <mxGeometry x="-780" y="1630" width="30" height="60" as="geometry" />
        </mxCell>
        <mxCell id="BEaddWaeXoZHOyZYiYv0-57" value="文旅云小程序" style="shape=umlLifeline;perimeter=lifelinePerimeter;whiteSpace=wrap;html=1;container=1;collapsible=0;recursiveResize=0;outlineConnect=0;fillColor=#dae8fc;strokeColor=#6c8ebf;" vertex="1" parent="1">
          <mxGeometry x="-630" y="1660" width="100" height="360" as="geometry" />
        </mxCell>
        <mxCell id="BEaddWaeXoZHOyZYiYv0-58" value="" style="html=1;points=[];perimeter=orthogonalPerimeter;" vertex="1" parent="BEaddWaeXoZHOyZYiYv0-57">
          <mxGeometry x="45" y="60" width="10" height="260" as="geometry" />
        </mxCell>
        <mxCell id="BEaddWaeXoZHOyZYiYv0-59" value="文旅云" style="shape=umlLifeline;perimeter=lifelinePerimeter;whiteSpace=wrap;html=1;container=1;collapsible=0;recursiveResize=0;outlineConnect=0;fillColor=#dae8fc;strokeColor=#6c8ebf;" vertex="1" parent="1">
          <mxGeometry x="-390" y="1660" width="100" height="360" as="geometry" />
        </mxCell>
        <mxCell id="BEaddWaeXoZHOyZYiYv0-60" value="" style="html=1;points=[];perimeter=orthogonalPerimeter;" vertex="1" parent="BEaddWaeXoZHOyZYiYv0-59">
          <mxGeometry x="45" y="60" width="10" height="260" as="geometry" />
        </mxCell>
        <mxCell id="BEaddWaeXoZHOyZYiYv0-61" value="扫一扫" style="html=1;verticalAlign=bottom;startArrow=oval;startFill=1;endArrow=block;startSize=8;rounded=0;" edge="1" parent="1">
          <mxGeometry width="60" relative="1" as="geometry">
            <mxPoint x="-790" y="1740" as="sourcePoint" />
            <mxPoint x="-590" y="1740" as="targetPoint" />
          </mxGeometry>
        </mxCell>
        <mxCell id="BEaddWaeXoZHOyZYiYv0-62" value="进入大会页面" style="html=1;verticalAlign=bottom;endArrow=block;rounded=0;" edge="1" parent="1">
          <mxGeometry x="0.614" y="-30" width="80" relative="1" as="geometry">
            <mxPoint x="-570" y="1780" as="sourcePoint" />
            <mxPoint x="-565" y="1860" as="targetPoint" />
            <Array as="points">
              <mxPoint x="-465" y="1780" />
              <mxPoint x="-465" y="1860" />
            </Array>
            <mxPoint as="offset" />
          </mxGeometry>
        </mxCell>
        <mxCell id="BEaddWaeXoZHOyZYiYv0-63" value="交流互动" style="html=1;verticalAlign=bottom;endArrow=block;rounded=0;" edge="1" parent="1">
          <mxGeometry width="80" relative="1" as="geometry">
            <mxPoint x="-570" y="1930" as="sourcePoint" />
            <mxPoint x="-350" y="1930" as="targetPoint" />
          </mxGeometry>
        </mxCell>
        <mxCell id="BEaddWaeXoZHOyZYiYv0-95" value="" style="edgeStyle=orthogonalEdgeStyle;rounded=0;orthogonalLoop=1;jettySize=auto;html=1;fontSize=14;" edge="1" parent="1" source="BEaddWaeXoZHOyZYiYv0-93" target="BEaddWaeXoZHOyZYiYv0-94">
          <mxGeometry relative="1" as="geometry" />
        </mxCell>
        <mxCell id="BEaddWaeXoZHOyZYiYv0-93" value="&lt;font&gt;创建会议&lt;/font&gt;&lt;br style=&quot;font-size: 12px&quot;&gt;&lt;span style=&quot;font-size: 12px&quot;&gt;（文旅云）&lt;/span&gt;" style="rounded=0;whiteSpace=wrap;html=1;fontSize=14;" vertex="1" parent="1">
          <mxGeometry x="-670" y="-540" width="120" height="60" as="geometry" />
        </mxCell>
        <mxCell id="BEaddWaeXoZHOyZYiYv0-97" value="" style="edgeStyle=orthogonalEdgeStyle;rounded=0;orthogonalLoop=1;jettySize=auto;html=1;fontSize=14;" edge="1" parent="1" source="BEaddWaeXoZHOyZYiYv0-94" target="BEaddWaeXoZHOyZYiYv0-96">
          <mxGeometry relative="1" as="geometry" />
        </mxCell>
        <mxCell id="BEaddWaeXoZHOyZYiYv0-94" value="设置邀请嘉宾&lt;br style=&quot;font-size: 12px&quot;&gt;&lt;span style=&quot;font-size: 12px&quot;&gt;（文旅云）&lt;/span&gt;" style="rounded=0;whiteSpace=wrap;html=1;fontSize=14;" vertex="1" parent="1">
          <mxGeometry x="-670" y="-410" width="120" height="60" as="geometry" />
        </mxCell>
        <mxCell id="BEaddWaeXoZHOyZYiYv0-99" value="" style="edgeStyle=orthogonalEdgeStyle;rounded=0;orthogonalLoop=1;jettySize=auto;html=1;fontSize=14;" edge="1" parent="1" source="BEaddWaeXoZHOyZYiYv0-96" target="BEaddWaeXoZHOyZYiYv0-98">
          <mxGeometry relative="1" as="geometry" />
        </mxCell>
        <mxCell id="BEaddWaeXoZHOyZYiYv0-96" value="生成大会邀请码&lt;br style=&quot;font-size: 12px&quot;&gt;&lt;span style=&quot;font-size: 12px&quot;&gt;（文旅云）&lt;/span&gt;" style="rounded=0;whiteSpace=wrap;html=1;fontSize=14;" vertex="1" parent="1">
          <mxGeometry x="-670" y="-280" width="120" height="60" as="geometry" />
        </mxCell>
        <mxCell id="BEaddWaeXoZHOyZYiYv0-101" style="edgeStyle=orthogonalEdgeStyle;rounded=0;orthogonalLoop=1;jettySize=auto;html=1;exitX=0.5;exitY=1;exitDx=0;exitDy=0;entryX=0.5;entryY=0;entryDx=0;entryDy=0;fontSize=14;" edge="1" parent="1" source="BEaddWaeXoZHOyZYiYv0-98" target="BEaddWaeXoZHOyZYiYv0-100">
          <mxGeometry relative="1" as="geometry" />
        </mxCell>
        <mxCell id="BEaddWaeXoZHOyZYiYv0-98" value="扫码大会邀请码&lt;br style=&quot;font-size: 12px&quot;&gt;&lt;span style=&quot;font-size: 12px&quot;&gt;（文旅云小程序）&lt;/span&gt;" style="rounded=0;whiteSpace=wrap;html=1;fontSize=14;" vertex="1" parent="1">
          <mxGeometry x="-670" y="-140" width="120" height="60" as="geometry" />
        </mxCell>
        <mxCell id="BEaddWaeXoZHOyZYiYv0-103" value="" style="edgeStyle=orthogonalEdgeStyle;rounded=0;orthogonalLoop=1;jettySize=auto;html=1;fontSize=14;" edge="1" parent="1" source="BEaddWaeXoZHOyZYiYv0-100" target="BEaddWaeXoZHOyZYiYv0-102">
          <mxGeometry relative="1" as="geometry" />
        </mxCell>
        <mxCell id="BEaddWaeXoZHOyZYiYv0-106" value="" style="edgeStyle=orthogonalEdgeStyle;rounded=0;orthogonalLoop=1;jettySize=auto;html=1;fontSize=14;" edge="1" parent="1" source="BEaddWaeXoZHOyZYiYv0-100" target="BEaddWaeXoZHOyZYiYv0-105">
          <mxGeometry relative="1" as="geometry" />
        </mxCell>
        <mxCell id="BEaddWaeXoZHOyZYiYv0-100" value="是否实名" style="rhombus;whiteSpace=wrap;html=1;fontSize=14;" vertex="1" parent="1">
          <mxGeometry x="-650" y="-30" width="80" height="80" as="geometry" />
        </mxCell>
        <mxCell id="BEaddWaeXoZHOyZYiYv0-111" value="" style="edgeStyle=orthogonalEdgeStyle;rounded=0;orthogonalLoop=1;jettySize=auto;html=1;fontSize=14;" edge="1" parent="1" source="BEaddWaeXoZHOyZYiYv0-102" target="BEaddWaeXoZHOyZYiYv0-110">
          <mxGeometry relative="1" as="geometry" />
        </mxCell>
        <mxCell id="BEaddWaeXoZHOyZYiYv0-102" value="参会嘉宾信息录入&lt;br style=&quot;font-size: 12px&quot;&gt;&lt;span style=&quot;font-size: 12px&quot;&gt;（文旅云小程序）&lt;/span&gt;" style="whiteSpace=wrap;html=1;fontSize=14;" vertex="1" parent="1">
          <mxGeometry x="-670" y="140" width="120" height="60" as="geometry" />
        </mxCell>
        <mxCell id="BEaddWaeXoZHOyZYiYv0-104" value="是" style="text;html=1;align=center;verticalAlign=middle;resizable=0;points=[];autosize=1;strokeColor=none;fillColor=none;fontSize=14;" vertex="1" parent="1">
          <mxGeometry x="-635" y="80" width="30" height="20" as="geometry" />
        </mxCell>
        <mxCell id="BEaddWaeXoZHOyZYiYv0-107" style="edgeStyle=orthogonalEdgeStyle;rounded=0;orthogonalLoop=1;jettySize=auto;html=1;fontSize=14;entryX=0.5;entryY=0;entryDx=0;entryDy=0;" edge="1" parent="1" source="BEaddWaeXoZHOyZYiYv0-105" target="BEaddWaeXoZHOyZYiYv0-102">
          <mxGeometry relative="1" as="geometry">
            <mxPoint x="-610" y="70" as="targetPoint" />
            <Array as="points">
              <mxPoint x="-450" y="80" />
              <mxPoint x="-610" y="80" />
            </Array>
          </mxGeometry>
        </mxCell>
        <mxCell id="BEaddWaeXoZHOyZYiYv0-105" value="&lt;span&gt;实名认证&lt;/span&gt;&lt;br style=&quot;font-size: 12px&quot;&gt;&lt;span style=&quot;font-size: 12px&quot;&gt;（文旅云小程序）&lt;/span&gt;" style="whiteSpace=wrap;html=1;fontSize=14;" vertex="1" parent="1">
          <mxGeometry x="-510" y="-20" width="120" height="60" as="geometry" />
        </mxCell>
        <mxCell id="BEaddWaeXoZHOyZYiYv0-108" value="否" style="text;html=1;align=center;verticalAlign=middle;resizable=0;points=[];autosize=1;strokeColor=none;fillColor=none;fontSize=14;" vertex="1" parent="1">
          <mxGeometry x="-555" y="-10" width="30" height="20" as="geometry" />
        </mxCell>
        <mxCell id="BEaddWaeXoZHOyZYiYv0-113" style="edgeStyle=orthogonalEdgeStyle;rounded=0;orthogonalLoop=1;jettySize=auto;html=1;fontSize=14;" edge="1" parent="1" source="BEaddWaeXoZHOyZYiYv0-110" target="BEaddWaeXoZHOyZYiYv0-112">
          <mxGeometry relative="1" as="geometry" />
        </mxCell>
        <mxCell id="BEaddWaeXoZHOyZYiYv0-110" value="嘉宾信息完善&lt;br style=&quot;font-size: 12px&quot;&gt;&lt;span style=&quot;font-size: 12px&quot;&gt;（文旅云）&lt;/span&gt;" style="whiteSpace=wrap;html=1;fontSize=14;" vertex="1" parent="1">
          <mxGeometry x="-670" y="280" width="120" height="60" as="geometry" />
        </mxCell>
        <mxCell id="BEaddWaeXoZHOyZYiYv0-112" value="" style="ellipse;html=1;shape=endState;fillColor=#000000;strokeColor=#ff0000;fontSize=14;" vertex="1" parent="1">
          <mxGeometry x="-625" y="390" width="30" height="30" as="geometry" />
        </mxCell>
        <mxCell id="BEaddWaeXoZHOyZYiYv0-114" value="" style="ellipse;html=1;shape=startState;fillColor=#000000;strokeColor=#ff0000;fontSize=14;" vertex="1" parent="1">
          <mxGeometry x="-625" y="-634" width="30" height="30" as="geometry" />
        </mxCell>
        <mxCell id="BEaddWaeXoZHOyZYiYv0-115" value="" style="edgeStyle=orthogonalEdgeStyle;html=1;verticalAlign=bottom;endArrow=open;endSize=8;strokeColor=#ff0000;rounded=0;fontSize=14;" edge="1" source="BEaddWaeXoZHOyZYiYv0-114" parent="1" target="BEaddWaeXoZHOyZYiYv0-93">
          <mxGeometry relative="1" as="geometry">
            <mxPoint x="-855" y="-65" as="targetPoint" />
          </mxGeometry>
        </mxCell>
        <mxCell id="BEaddWaeXoZHOyZYiYv0-116" value="邀请流程" style="text;align=center;fontStyle=1;verticalAlign=middle;spacingLeft=3;spacingRight=3;strokeColor=none;rotatable=0;points=[[0,0.5],[1,0.5]];portConstraint=eastwest;fontSize=14;" vertex="1" parent="1">
          <mxGeometry x="-650" y="-670" width="80" height="26" as="geometry" />
        </mxCell>
        <mxCell id="BEaddWaeXoZHOyZYiYv0-117" value="" style="edgeStyle=orthogonalEdgeStyle;rounded=0;orthogonalLoop=1;jettySize=auto;html=1;fontSize=14;" edge="1" parent="1" source="BEaddWaeXoZHOyZYiYv0-118" target="BEaddWaeXoZHOyZYiYv0-120">
          <mxGeometry relative="1" as="geometry" />
        </mxCell>
        <mxCell id="BEaddWaeXoZHOyZYiYv0-118" value="登录腾讯会议&lt;br style=&quot;font-size: 12px&quot;&gt;&lt;span style=&quot;font-size: 12px&quot;&gt;（视频会议客户端）&lt;/span&gt;" style="rounded=0;whiteSpace=wrap;html=1;fontSize=14;" vertex="1" parent="1">
          <mxGeometry x="-163" y="-540" width="120" height="60" as="geometry" />
        </mxCell>
        <mxCell id="BEaddWaeXoZHOyZYiYv0-119" value="" style="edgeStyle=orthogonalEdgeStyle;rounded=0;orthogonalLoop=1;jettySize=auto;html=1;fontSize=14;" edge="1" parent="1" source="BEaddWaeXoZHOyZYiYv0-120" target="BEaddWaeXoZHOyZYiYv0-122">
          <mxGeometry relative="1" as="geometry" />
        </mxCell>
        <mxCell id="BEaddWaeXoZHOyZYiYv0-120" value="点击参会：显示二维码&lt;br style=&quot;font-size: 12px&quot;&gt;&lt;span style=&quot;font-size: 12px&quot;&gt;（视频会议客户端）&lt;/span&gt;" style="rounded=0;whiteSpace=wrap;html=1;fontSize=14;" vertex="1" parent="1">
          <mxGeometry x="-163" y="-410" width="120" height="60" as="geometry" />
        </mxCell>
        <mxCell id="BEaddWaeXoZHOyZYiYv0-149" style="edgeStyle=orthogonalEdgeStyle;curved=1;rounded=0;orthogonalLoop=1;jettySize=auto;html=1;entryX=0.5;entryY=0;entryDx=0;entryDy=0;fontSize=14;" edge="1" parent="1" source="BEaddWaeXoZHOyZYiYv0-122" target="BEaddWaeXoZHOyZYiYv0-127">
          <mxGeometry relative="1" as="geometry" />
        </mxCell>
        <mxCell id="BEaddWaeXoZHOyZYiYv0-122" value="扫码参会&lt;br style=&quot;font-size: 12px&quot;&gt;&lt;span style=&quot;font-size: 12px&quot;&gt;（文旅云小程序）&lt;/span&gt;" style="rounded=0;whiteSpace=wrap;html=1;fontSize=14;" vertex="1" parent="1">
          <mxGeometry x="-163" y="-280" width="120" height="60" as="geometry" />
        </mxCell>
        <mxCell id="BEaddWaeXoZHOyZYiYv0-125" value="" style="edgeStyle=orthogonalEdgeStyle;rounded=0;orthogonalLoop=1;jettySize=auto;html=1;fontSize=14;" edge="1" parent="1" source="BEaddWaeXoZHOyZYiYv0-127" target="BEaddWaeXoZHOyZYiYv0-129">
          <mxGeometry relative="1" as="geometry" />
        </mxCell>
        <mxCell id="BEaddWaeXoZHOyZYiYv0-126" value="" style="edgeStyle=orthogonalEdgeStyle;rounded=0;orthogonalLoop=1;jettySize=auto;html=1;fontSize=14;" edge="1" parent="1" source="BEaddWaeXoZHOyZYiYv0-127" target="BEaddWaeXoZHOyZYiYv0-132">
          <mxGeometry relative="1" as="geometry" />
        </mxCell>
        <mxCell id="BEaddWaeXoZHOyZYiYv0-127" value="是否报名" style="rhombus;whiteSpace=wrap;html=1;fontSize=14;" vertex="1" parent="1">
          <mxGeometry x="-143" y="-140" width="80" height="80" as="geometry" />
        </mxCell>
        <mxCell id="BEaddWaeXoZHOyZYiYv0-163" value="" style="edgeStyle=none;rounded=0;orthogonalLoop=1;jettySize=auto;html=1;fontSize=12;endArrow=classic;endFill=1;" edge="1" parent="1" source="BEaddWaeXoZHOyZYiYv0-129" target="BEaddWaeXoZHOyZYiYv0-162">
          <mxGeometry relative="1" as="geometry" />
        </mxCell>
        <mxCell id="BEaddWaeXoZHOyZYiYv0-129" value="入会&lt;br style=&quot;font-size: 12px&quot;&gt;&lt;span style=&quot;font-size: 12px&quot;&gt;（&lt;/span&gt;&lt;span style=&quot;font-size: 12px&quot;&gt;视频会议客户端&lt;/span&gt;&lt;span style=&quot;font-size: 12px&quot;&gt;）&lt;/span&gt;" style="whiteSpace=wrap;html=1;fontSize=14;" vertex="1" parent="1">
          <mxGeometry x="-163" y="30" width="120" height="60" as="geometry" />
        </mxCell>
        <mxCell id="BEaddWaeXoZHOyZYiYv0-130" value="是" style="text;html=1;align=center;verticalAlign=middle;resizable=0;points=[];autosize=1;strokeColor=none;fillColor=none;fontSize=14;" vertex="1" parent="1">
          <mxGeometry x="-128" y="-30" width="30" height="20" as="geometry" />
        </mxCell>
        <mxCell id="BEaddWaeXoZHOyZYiYv0-131" style="edgeStyle=orthogonalEdgeStyle;rounded=0;orthogonalLoop=1;jettySize=auto;html=1;fontSize=14;entryX=1;entryY=0.5;entryDx=0;entryDy=0;" edge="1" parent="1" source="BEaddWaeXoZHOyZYiYv0-132" target="BEaddWaeXoZHOyZYiYv0-122">
          <mxGeometry relative="1" as="geometry">
            <mxPoint x="-103" y="70" as="targetPoint" />
            <Array as="points">
              <mxPoint x="57" y="-250" />
            </Array>
          </mxGeometry>
        </mxCell>
        <mxCell id="BEaddWaeXoZHOyZYiYv0-132" value="扫码邀请码报名" style="whiteSpace=wrap;html=1;fontSize=14;" vertex="1" parent="1">
          <mxGeometry x="-3" y="-130" width="120" height="60" as="geometry" />
        </mxCell>
        <mxCell id="BEaddWaeXoZHOyZYiYv0-133" value="否" style="text;html=1;align=center;verticalAlign=middle;resizable=0;points=[];autosize=1;strokeColor=none;fillColor=none;fontSize=14;" vertex="1" parent="1">
          <mxGeometry x="-48" y="-120" width="30" height="20" as="geometry" />
        </mxCell>
        <mxCell id="BEaddWaeXoZHOyZYiYv0-137" value="" style="ellipse;html=1;shape=startState;fillColor=#000000;strokeColor=#ff0000;fontSize=14;" vertex="1" parent="1">
          <mxGeometry x="-118" y="-634" width="30" height="30" as="geometry" />
        </mxCell>
        <mxCell id="BEaddWaeXoZHOyZYiYv0-138" value="" style="edgeStyle=orthogonalEdgeStyle;html=1;verticalAlign=bottom;endArrow=open;endSize=8;strokeColor=#ff0000;rounded=0;fontSize=14;" edge="1" parent="1" source="BEaddWaeXoZHOyZYiYv0-137" target="BEaddWaeXoZHOyZYiYv0-118">
          <mxGeometry relative="1" as="geometry">
            <mxPoint x="-348" y="-65" as="targetPoint" />
          </mxGeometry>
        </mxCell>
        <mxCell id="BEaddWaeXoZHOyZYiYv0-139" value="签约嘉宾入会流程" style="text;align=center;fontStyle=1;verticalAlign=middle;spacingLeft=3;spacingRight=3;strokeColor=none;rotatable=0;points=[[0,0.5],[1,0.5]];portConstraint=eastwest;fontSize=14;" vertex="1" parent="1">
          <mxGeometry x="-143" y="-670" width="80" height="26" as="geometry" />
        </mxCell>
        <mxCell id="BEaddWaeXoZHOyZYiYv0-152" style="rounded=0;orthogonalLoop=1;jettySize=auto;html=1;fontSize=14;dashed=1;edgeStyle=orthogonalEdgeStyle;curved=1;exitX=-0.008;exitY=0.6;exitDx=0;exitDy=0;exitPerimeter=0;endArrow=none;endFill=0;" edge="1" parent="1" source="BEaddWaeXoZHOyZYiYv0-151" target="BEaddWaeXoZHOyZYiYv0-127">
          <mxGeometry relative="1" as="geometry">
            <Array as="points">
              <mxPoint y="28" />
              <mxPoint y="-20" />
              <mxPoint x="-103" y="-20" />
            </Array>
          </mxGeometry>
        </mxCell>
        <mxCell id="BEaddWaeXoZHOyZYiYv0-151" value="&lt;font style=&quot;font-size: 12px&quot;&gt;返回当前用户最近一次的会议信息已经是否为签约嘉宾&lt;/font&gt;" style="ellipse;whiteSpace=wrap;html=1;dashed=1;fontSize=14;" vertex="1" parent="1">
          <mxGeometry x="80" y="-20" width="120" height="80" as="geometry" />
        </mxCell>
        <mxCell id="BEaddWaeXoZHOyZYiYv0-167" style="edgeStyle=none;rounded=0;orthogonalLoop=1;jettySize=auto;html=1;exitX=0.5;exitY=1;exitDx=0;exitDy=0;fontSize=12;endArrow=classic;endFill=1;" edge="1" parent="1" source="BEaddWaeXoZHOyZYiYv0-162" target="BEaddWaeXoZHOyZYiYv0-166">
          <mxGeometry relative="1" as="geometry" />
        </mxCell>
        <mxCell id="BEaddWaeXoZHOyZYiYv0-168" value="否" style="edgeLabel;html=1;align=center;verticalAlign=middle;resizable=0;points=[];fontSize=12;" vertex="1" connectable="0" parent="BEaddWaeXoZHOyZYiYv0-167">
          <mxGeometry x="-0.3333" y="1" relative="1" as="geometry">
            <mxPoint x="-16" as="offset" />
          </mxGeometry>
        </mxCell>
        <mxCell id="BEaddWaeXoZHOyZYiYv0-170" value="" style="edgeStyle=none;rounded=0;orthogonalLoop=1;jettySize=auto;html=1;fontSize=12;endArrow=classic;endFill=1;" edge="1" parent="1" source="BEaddWaeXoZHOyZYiYv0-162" target="BEaddWaeXoZHOyZYiYv0-169">
          <mxGeometry relative="1" as="geometry" />
        </mxCell>
        <mxCell id="BEaddWaeXoZHOyZYiYv0-162" value="是否签约" style="rhombus;whiteSpace=wrap;html=1;fontSize=14;" vertex="1" parent="1">
          <mxGeometry x="-143" y="160" width="80" height="80" as="geometry" />
        </mxCell>
        <mxCell id="BEaddWaeXoZHOyZYiYv0-166" value="" style="ellipse;html=1;shape=endState;fillColor=#000000;strokeColor=#ff0000;fontSize=14;" vertex="1" parent="1">
          <mxGeometry x="-118" y="330" width="30" height="30" as="geometry" />
        </mxCell>
        <mxCell id="BEaddWaeXoZHOyZYiYv0-172" style="edgeStyle=none;rounded=0;orthogonalLoop=1;jettySize=auto;html=1;entryX=0.5;entryY=0;entryDx=0;entryDy=0;fontSize=12;endArrow=classic;endFill=1;" edge="1" parent="1" source="BEaddWaeXoZHOyZYiYv0-169" target="BEaddWaeXoZHOyZYiYv0-166">
          <mxGeometry relative="1" as="geometry">
            <Array as="points">
              <mxPoint x="57" y="280" />
              <mxPoint x="-103" y="280" />
            </Array>
          </mxGeometry>
        </mxCell>
        <mxCell id="BEaddWaeXoZHOyZYiYv0-169" value="签约&lt;br style=&quot;font-size: 12px&quot;&gt;&lt;span style=&quot;font-size: 12px&quot;&gt;（&lt;/span&gt;&lt;span style=&quot;font-size: 12px&quot;&gt;视频会议客户端&lt;/span&gt;&lt;span style=&quot;font-size: 12px&quot;&gt;）&lt;/span&gt;" style="whiteSpace=wrap;html=1;fontSize=14;" vertex="1" parent="1">
          <mxGeometry x="-3" y="170" width="120" height="60" as="geometry" />
        </mxCell>
        <mxCell id="BEaddWaeXoZHOyZYiYv0-173" value="" style="edgeStyle=orthogonalEdgeStyle;rounded=0;orthogonalLoop=1;jettySize=auto;html=1;fontSize=14;" edge="1" parent="1" source="BEaddWaeXoZHOyZYiYv0-174" target="BEaddWaeXoZHOyZYiYv0-176">
          <mxGeometry relative="1" as="geometry" />
        </mxCell>
        <mxCell id="BEaddWaeXoZHOyZYiYv0-174" value="扫码邀请二维码&lt;br style=&quot;font-size: 12px&quot;&gt;&lt;span style=&quot;font-size: 12px&quot;&gt;（文旅云小程序）&lt;/span&gt;" style="rounded=0;whiteSpace=wrap;html=1;fontSize=14;" vertex="1" parent="1">
          <mxGeometry x="440" y="-540" width="120" height="60" as="geometry" />
        </mxCell>
        <mxCell id="BEaddWaeXoZHOyZYiYv0-196" style="edgeStyle=none;rounded=0;orthogonalLoop=1;jettySize=auto;html=1;fontSize=12;endArrow=classic;endFill=1;" edge="1" parent="1" source="BEaddWaeXoZHOyZYiYv0-176" target="BEaddWaeXoZHOyZYiYv0-192">
          <mxGeometry relative="1" as="geometry" />
        </mxCell>
        <mxCell id="BEaddWaeXoZHOyZYiYv0-176" value="进入会议页面&lt;br style=&quot;font-size: 12px&quot;&gt;&lt;span style=&quot;font-size: 12px&quot;&gt;（文旅云小程序）&lt;/span&gt;" style="rounded=0;whiteSpace=wrap;html=1;fontSize=14;" vertex="1" parent="1">
          <mxGeometry x="440" y="-410" width="120" height="60" as="geometry" />
        </mxCell>
        <mxCell id="BEaddWaeXoZHOyZYiYv0-192" value="" style="ellipse;html=1;shape=endState;fillColor=#000000;strokeColor=#ff0000;fontSize=14;" vertex="1" parent="1">
          <mxGeometry x="485" y="-280" width="30" height="30" as="geometry" />
        </mxCell>
        <mxCell id="BEaddWaeXoZHOyZYiYv0-193" value="" style="ellipse;html=1;shape=startState;fillColor=#000000;strokeColor=#ff0000;fontSize=14;" vertex="1" parent="1">
          <mxGeometry x="485" y="-634" width="30" height="30" as="geometry" />
        </mxCell>
        <mxCell id="BEaddWaeXoZHOyZYiYv0-194" value="" style="edgeStyle=orthogonalEdgeStyle;html=1;verticalAlign=bottom;endArrow=open;endSize=8;strokeColor=#ff0000;rounded=0;fontSize=14;" edge="1" parent="1" source="BEaddWaeXoZHOyZYiYv0-193" target="BEaddWaeXoZHOyZYiYv0-174">
          <mxGeometry relative="1" as="geometry">
            <mxPoint x="255" y="-65" as="targetPoint" />
          </mxGeometry>
        </mxCell>
        <mxCell id="BEaddWaeXoZHOyZYiYv0-195" value="非签约嘉宾“入会”" style="text;align=center;fontStyle=1;verticalAlign=middle;spacingLeft=3;spacingRight=3;strokeColor=none;rotatable=0;points=[[0,0.5],[1,0.5]];portConstraint=eastwest;fontSize=14;" vertex="1" parent="1">
          <mxGeometry x="460" y="-670" width="80" height="26" as="geometry" />
        </mxCell>
      </root>
    </mxGraphModel>
  </diagram>
</mxfile>
